<?xml version="1.0" encoding="utf-8"?>
<!-- Generator: Adobe Illustrator 26.1.0, SVG Export Plug-In . SVG Version: 6.00 Build 0)  -->
<svg version="1.1" id="Layer_1" xmlns="http://www.w3.org/2000/svg" xmlns:xlink="http://www.w3.org/1999/xlink" x="0px" y="0px"
	 viewBox="0 0 528 528" style="enable-background:new 0 0 528 528;" xml:space="preserve">
<style type="text/css">
	.st0{fill:#1B2430;}
</style>
<path class="st0" d="M85.9,155.2h357.1c3.2,0,5.8,2.6,5.8,5.8V368c0,3.2-2.6,5.8-5.8,5.8H85.9c-3.2,0-5.8-2.6-5.8-5.8V161
	C80.2,157.8,82.8,155.2,85.9,155.2L85.9,155.2z M437.3,166.7H91.7v195.6h345.6V166.7z"/>
<path class="st0" d="M88.8,156c-2.8-1.6-6.3-0.6-7.8,2.1c-1.6,2.8-0.7,6.3,2.1,7.9l178.6,103.5l0,0c2,1.1,4.4,1,6.1-0.2l178.2-103.3
	c2.8-1.6,3.7-5.1,2.1-7.9c-1.6-2.8-5.1-3.7-7.9-2.1L264.5,257.9L88.8,156z"/>
<path class="st0" d="M307.6,281.5c-2.8-1.6-6.2-0.6-7.8,2.1s-0.6,6.2,2.1,7.8l81.5,47c2.8,1.6,6.2,0.6,7.8-2.1s0.6-6.2-2.1-7.8
	L307.6,281.5z"/>
<path class="st0" d="M227.1,291.3c2.7-1.6,3.6-5.2,2-7.9s-5.2-3.6-7.9-2l-81.4,49.2c-2.7,1.6-3.6,5.2-2,7.9s5.2,3.6,7.9,2
	L227.1,291.3z"/>
</svg>
